<svg width="200" height="184" viewBox="0 0 200 184" fill="none" xmlns="http://www.w3.org/2000/svg">
                        <path d="M178.566 91.6643C178.566 139.987 139.392 179.162 91.0686 179.162C42.744 179.162 3.57129 139.987 3.57129 91.6643C3.57129 43.3397 42.744 4.16699 91.0686 4.16699C139.392 4.16699 178.566 43.3397 178.566 91.6643Z" fill="rgba(255, 154, 160, 0.991703)"/>
                        <path d="M91.6644 183.327C41.1242 183.327 0 142.205 0 91.6644C0 41.1242 41.1242 0 91.6644 0C109.23 0 126.33 5.01694 141.112 14.4908C144.02 16.3585 144.863 20.2249 143.004 23.124C141.138 26.0246 137.262 26.8745 134.371 25.0084C121.597 16.833 106.839 12.4996 91.6644 12.4996C48.0149 12.4996 12.4996 48.0149 12.4996 91.6644C12.4996 135.312 48.0149 170.828 91.6644 170.828C135.312 170.828 170.828 135.312 170.828 91.6644C170.828 89.0552 170.703 86.472 170.461 83.9315C170.129 80.4984 172.645 77.4391 176.086 77.1141C179.494 76.6731 182.569 79.2975 182.903 82.7307C183.185 85.6725 183.327 88.6478 183.327 91.6644C183.327 142.205 142.205 183.327 91.6644 183.327Z" fill="rgba(249, 73, 115, 0.991703)"/>
                        <path d="M102.08 112.496C100.481 112.496 98.8799 111.887 97.6638 110.663L60.165 73.1643C57.7237 70.7214 57.7237 66.7634 60.165 64.3221C62.6063 61.8808 66.5643 61.8808 69.0057 64.3221L102.089 97.4052L189.327 10.1657C191.77 7.72438 195.728 7.72438 198.169 10.1657C200.61 12.607 200.61 16.5651 198.169 19.0064L106.505 110.671C105.279 111.887 103.68 112.496 102.08 112.496Z" fill="rgba(249, 73, 115, 0.991703)"/>
                    </svg>